<?xml version="1.0" encoding="UTF-8"?>
<svg id="_圖層_1" data-name="圖層 1" xmlns="http://www.w3.org/2000/svg" viewBox="0 0 1024 1024">
  <defs>
    <style>
      .cls-1 {
        fill: #e28015;
      }

      .cls-1, .cls-2 {
        stroke-width: 0px;
      }

      .cls-2 {
        fill: #03499d;
      }
    </style>
  </defs>
  <path class="cls-1" d="M519.33,327.78c-105.14-.94-191.14,83.53-192.08,188.67-.94,105.14,83.53,191.14,188.67,192.08,105.14.94,191.14-83.53,192.08-188.67.94-105.14-83.53-191.14-188.67-192.08ZM620.96,618.65c-.03,3.85-3.18,6.94-7.04,6.91l-194.5-1.74c-3.85-.03-6.94-3.18-6.91-7.04l.24-26.45c.02-1.79.72-3.51,1.97-4.79l118.07-121.73c4.27-4.4,1.19-11.77-4.94-11.83l-98.18-.88c-3.85-.03-6.94-3.18-6.91-7.03l.24-26.33c.03-3.85,3.18-6.94,7.04-6.91l181.63,1.62c3.85.03,6.94,3.18,6.91,7.04l-.24,26.9c-.02,1.8-.73,3.53-1.99,4.82l-118.22,120.77c-4.3,4.39-1.23,11.8,4.92,11.85l111.24.99c3.85.03,6.94,3.18,6.91,7.03l-.24,26.79Z"/>
  <g>
    <path class="cls-2" d="M713.41,620.79l32.69,28.56c29.95-48.51,42.84-104.03,39.3-158.47l-51.11-44.65c16.55,57.6,10.01,120.77-20.88,174.56Z"/>
    <path class="cls-2" d="M666.12,338.85c4,3.5,7.64,7.25,11.33,10.95l.77-.88,97.01,84.74c-13.77-47.65-40.68-92.09-80.84-127.17-100.28-87.6-247.12-87.03-346.7-5.19l32.69,28.56c83.48-64.27,203.37-62.97,285.74,8.99Z"/>
  </g>
  <rect class="cls-2" x="658.36" y="408.29" width="288.99" height="41.74" transform="translate(480.56 -422.24) rotate(41.14)"/>
  <g>
    <path class="cls-2" d="M318.83,402.2l-32.69-28.56c-29.95,48.51-42.84,104.03-39.3,158.47l51.11,44.65c-16.55-57.6-10.01-120.77,20.88-174.56Z"/>
    <path class="cls-2" d="M366.12,684.14c-4-3.5-7.64-7.25-11.33-10.95l-.77.88-97.01-84.74c13.77,47.65,40.68,92.09,80.84,127.17,100.28,87.6,247.12,87.03,346.7,5.19l-32.69-28.56c-83.48,64.27-203.37,62.97-285.74-8.99Z"/>
  </g>
  <rect class="cls-2" x="84.9" y="572.96" width="288.99" height="41.74" transform="translate(11.47 1191.97) rotate(-138.86)"/>
  <g>
    <rect class="cls-1" x="637.11" y="676.91" width="201.88" height="41.74" transform="translate(641.29 -313.29) rotate(41.14)"/>
    <path class="cls-1" d="M860.27,745.74c-18.42-16.09-46.4-14.2-62.49,4.22-16.09,18.42-14.2,46.4,4.22,62.49,18.42,16.09,46.4,14.2,62.49-4.22,16.09-18.42,14.2-46.4-4.22-62.49ZM827.08,798.08c-10.49-2.24-17.18-12.55-14.94-23.03,2.24-10.49,12.55-17.17,23.03-14.94,10.49,2.24,17.17,12.55,14.94,23.03-2.24,10.49-12.55,17.17-23.03,14.94Z"/>
  </g>
  <g>
    <rect class="cls-1" x="197.29" y="306.85" width="201.88" height="41.74" transform="translate(300.06 770.81) rotate(-137.93)"/>
    <path class="cls-1" d="M176.81,277.79c18.16,16.39,46.16,14.95,62.55-3.2,16.39-18.16,14.95-46.16-3.2-62.55-18.16-16.39-46.16-14.95-62.55,3.21-16.39,18.16-14.95,46.16,3.2,62.55ZM210.84,225.99c10.45,2.4,16.97,12.82,14.57,23.27-2.4,10.45-12.82,16.97-23.27,14.57-10.45-2.4-16.97-12.82-14.57-23.27,2.4-10.45,12.82-16.97,23.27-14.57Z"/>
  </g>
  <path class="cls-2" d="M960.36,507.95c-18.42-16.09-46.4-14.2-62.49,4.22-16.09,18.42-14.2,46.4,4.22,62.49,18.42,16.09,46.4,14.2,62.49-4.22,16.09-18.42,14.2-46.4-4.22-62.49ZM926.77,562.16c-11.52-2.45-18.86-13.78-16.41-25.3,2.45-11.52,13.78-18.86,25.3-16.41,11.52,2.45,18.86,13.78,16.41,25.3-2.45,11.52-13.78,18.86-25.3,16.41Z"/>
  <path class="cls-2" d="M121.92,441.69c-18.42-16.09-46.4-14.2-62.49,4.22-16.09,18.42-14.2,46.4,4.22,62.49,18.42,16.09,46.4,14.2,62.49-4.22,16.09-18.42,14.2-46.4-4.22-62.49ZM88.82,493.64c-10.27-2.19-16.83-12.29-14.64-22.57,2.19-10.27,12.29-16.83,22.57-14.64,10.27,2.19,16.83,12.29,14.64,22.57-2.19,10.27-12.29,16.83-22.57,14.64Z"/>
</svg>