<?xml version="1.0" ?><svg enable-background="new 0 0 52 52" id="Layer_1" version="1.1" viewBox="0 0 52 52" xml:space="preserve" xmlns="http://www.w3.org/2000/svg" xmlns:xlink="http://www.w3.org/1999/xlink"><g><g><path d="M7.9472656,18.9995117c0.5527344,0,1-0.4472656,1-1v-5.8164063c0-2.8583984,2.5097656-5.1835938,5.5957031-5.1835938    h5.4042969c0.5527344,0,1-0.4472656,1-1s-0.4472656-1-1-1h-5.4042969c-4.1884766,0-7.5957031,3.2226563-7.5957031,7.1835938    v5.8164063C6.9472656,18.5522461,7.3945313,18.9995117,7.9472656,18.9995117z"/></g><g><path d="M19.9472656,45.0004883h-5.4042969c-3.0859375,0-5.5957031-2.3251953-5.5957031-5.1835938v-5.8164063    c0-0.5527344-0.4472656-1-1-1s-1,0.4472656-1,1v5.8164063c0,3.9609375,3.4072266,7.1835938,7.5957031,7.1835938h5.4042969    c0.5527344,0,1-0.4472656,1-1S20.5,45.0004883,19.9472656,45.0004883z"/></g><g><path d="M37.4570313,4.9995117h-5.4042969c-0.5527344,0-1,0.4472656-1,1s0.4472656,1,1,1h5.4042969    c3.0859375,0,5.5957031,2.3251953,5.5957031,5.1835938v5.8164063c0,0.5527344,0.4472656,1,1,1s1-0.4472656,1-1v-5.8164063    C45.0527344,8.222168,41.6455078,4.9995117,37.4570313,4.9995117z"/></g><g><path d="M44.0527344,33.0004883c-0.5527344,0-1,0.4472656-1,1v5.8164063c0,2.8583984-2.5097656,5.1835938-5.5957031,5.1835938    h-5.4042969c-0.5527344,0-1,0.4472656-1,1s0.4472656,1,1,1h5.4042969c4.1884766,0,7.5957031-3.2226563,7.5957031-7.1835938    v-5.8164063C45.0527344,33.4477539,44.6054688,33.0004883,44.0527344,33.0004883z"/></g><g><path d="M23.453125,23.2006836c-0.4423828,0.3310547-0.5322266,0.9580078-0.2001953,1.3994141    c0.0273438,0.0380859,2.7998047,3.7871094,2.7998047,8.4003906c0,0.5527344,0.4472656,1,1,1s1-0.4472656,1-1    c0-5.2724609-3.0693359-9.4257813-3.2001953-9.5996094C24.5214844,22.9575195,23.8945313,22.8686523,23.453125,23.2006836z" fill="#F93E2B"/></g><g><path d="M21.6054688,18.105957c-2.0273438,1.0136719-2.9306641,3.0683594-2.5429688,5.7861328    c0.2705078,1.8886719,1.0625,3.4882813,1.0957031,3.5556641c0.1748047,0.3505859,0.5283203,0.5527344,0.8945313,0.5527344    c0.1503906,0,0.3027344-0.0341797,0.4453125-0.1054688c0.4941406-0.2460938,0.6953125-0.8466797,0.4501953-1.3408203    c-0.0253906-0.0507813-2.5039063-5.1318359,0.5332031-6.6503906c0.1308594-0.0576172,3.2314453-1.3466797,6.6767578,5.5439453    C29.40625,25.9428711,30.0058594,26.1401367,30.5,25.8950195c0.4941406-0.2470703,0.6943359-0.8476563,0.4472656-1.3417969    C26.5507813,15.7592773,21.8046875,18.0073242,21.6054688,18.105957z" fill="#F93E2B"/></g><g><path d="M27.6943359,15.934082c0.2958984,0.1162109,7.2246094,3.0048828,5.3671875,16.9345703    c-0.0732422,0.546875,0.3115234,1.0498047,0.859375,1.1230469c0.0449219,0.0058594,0.0888672,0.0087891,0.1328125,0.0087891    c0.4941406,0,0.9228516-0.3652344,0.9902344-0.8681641c2.0810547-15.609375-6.2832031-18.9345703-6.6396484-19.0683594    c-0.5185547-0.1914063-1.0849609,0.0664063-1.28125,0.5800781C26.9257813,15.1567383,27.1835938,15.7329102,27.6943359,15.934082z    " fill="#F93E2B"/></g><g><path d="M16.0019531,24.3686523c-0.546875,0.0761719-0.9277344,0.5810547-0.8515625,1.1289063    c0.6474609,4.6386719,2.9257813,7.6298828,3.0224609,7.7548828c0.1962891,0.2548828,0.4921875,0.3876953,0.7900391,0.3876953    c0.2138672,0,0.4277344-0.0673828,0.6103516-0.2070313c0.4365234-0.3369141,0.5185547-0.9638672,0.1835938-1.4013672    c-0.0205078-0.0273438-2.0556641-2.7216797-2.6259766-6.8115234    C17.0546875,24.6733398,16.5488281,24.2856445,16.0019531,24.3686523z" fill="#F93E2B"/></g><g><path d="M15.0654297,19.8422852c-0.0869141,0.5458984,0.2841797,1.0585938,0.8291016,1.1455078    c0.0537109,0.0087891,0.1064453,0.0126953,0.1591797,0.0126953c0.4824219,0,0.9082031-0.3505859,0.9863281-0.8417969    c0.0341797-0.2109375,0.8955078-5.1582031,7.0126953-5.1582031c0.5527344,0,1-0.4472656,1-1s-0.4472656-1-1-1    C16.25,13.0004883,15.0761719,19.7739258,15.0654297,19.8422852z" fill="#F93E2B"/></g><g><path d="M13.0527344,39.0004883c-0.5527344,0-1,0.4472656-1,1s0.4472656,1,1,1h0.8945313c0.5527344,0,1-0.4472656,1-1    s-0.4472656-1-1-1H13.0527344z"/></g><g><path d="M25.5,39.0004883h-0.8945313c-0.5527344,0-1,0.4472656-1,1s0.4472656,1,1,1H25.5c0.5527344,0,1-0.4472656,1-1    S26.0527344,39.0004883,25.5,39.0004883z"/></g><g><path d="M36.1582031,41.0004883h0.8945313c0.5527344,0,1-0.4472656,1-1s-0.4472656-1-1-1h-0.8945313c-0.5527344,0-1,0.4472656-1,1    S35.6054688,41.0004883,36.1582031,41.0004883z"/></g></g></svg>